<svg xmlns="http://www.w3.org/2000/svg" viewBox="0 0 263.72 264"><defs><style>.cls-1{fill:#232641;}.cls-2{fill:none;stroke:#c18b2b;stroke-miterlimit:10;}.cls-3{fill:#fff;}</style></defs><title>Asset 17</title><g id="Layer_2" data-name="Layer 2"><g id="create1"><path class="cls-1" d="M263.5,263.5,263.72,0h-.22C119,0,0,119,0,263.5Z"/><line class="cls-2" x1="263.22" y1="0.5" x2="263.22" y2="263.5"/><line class="cls-2" x1="263.22" y1="263.5" x2="0.22" y2="263.5"/></g><g id="create"><path class="cls-3" d="M79.72,189.13a12.78,12.78,0,0,1-1.53,4.64c-2.36,4.52-6.8,6.72-12,4.3-5-2.29-6.6-7.7-3.75-13.14a11.18,11.18,0,0,1,2.89-3.75c.44.48.89.95,1.33,1.42a9.65,9.65,0,0,0-2.5,3.13c-2.13,4.08-1.08,8,3.07,10,3.88,1.85,7.46.7,9.52-3.25a10.25,10.25,0,0,0,1.19-3.75Z"/><path class="cls-3" d="M66.62,178.31a25.78,25.78,0,0,1,2.12-4.38c1.38-2.33,2.69-3.57,4.17-4.08a4.13,4.13,0,0,1,3.62.5,4.72,4.72,0,0,1,1.89,5.4l.07.05c1.16-1,2.68-1.06,4.45-.46a28.51,28.51,0,0,0,4.82,1.39c-.44.68-.87,1.36-1.3,2a23,23,0,0,1-4.2-1.17c-2.34-.8-3.65-.43-4.84,1.42-.39.66-.78,1.31-1.16,2l6.56,3.82c-.39.67-.78,1.35-1.16,2Zm8.16,1.82L76,178c1.34-2.24,1.09-4.34-.61-5.4-1.91-1.2-3.72-.18-5.1,2.09a10.51,10.51,0,0,0-1.08,2.25Z"/><path class="cls-3" d="M87.84,162c-1.42,2-2.8,4-4.16,6l5.24,3.53q2.2-3.27,4.52-6.46L95,166.16q-3,4.09-5.78,8.35l-14.64-9.64q2.91-4.41,6-8.66l1.53,1.11q-2.33,3.21-4.55,6.51l4.6,3.1q2-3,4.19-6Z"/><path class="cls-3" d="M94.16,158.05q1.61,2.43,3.24,4.85-.74,1-1.44,1.92-5.23-7.66-10.1-15.67c.62-.79,1.25-1.59,1.88-2.37q8.91,2.91,17.57,6.25c-.53.63-1.07,1.26-1.59,1.9l-5.49-2Q96.16,155.46,94.16,158.05Zm2.38-5.86c-1.68-.59-3.38-1.17-5.08-1.74-1.16-.38-2.15-.81-3.12-1.21l0,0c.63.87,1.27,1.78,1.89,2.73.94,1.53,1.9,3.05,2.86,4.57Q94.79,154.36,96.54,152.19Z"/><path class="cls-3" d="M96.24,139.68c-1.29,1.47-2.57,2.94-3.82,4.44l-1.48-1.24q4.64-5.5,9.57-10.71l1.39,1.33c-1.34,1.42-2.68,2.86-4,4.31l11.58,10.45L107.93,150Z"/><path class="cls-3" d="M115.53,130.31c-1.74,1.66-3.46,3.34-5.16,5.06l4.5,4.44q2.75-2.79,5.6-5.48l1.3,1.38q-3.66,3.47-7.17,7.09L102,130.62q3.63-3.76,7.44-7.36l1.3,1.38q-2.86,2.72-5.64,5.52,2,2,3.94,3.89,2.56-2.6,5.2-5.1Z"/><path class="cls-3" d="M136.83,122.76l-2.39-.3a7.73,7.73,0,0,1-2.8,4.87c-2.66,2.23-5.68,1.86-7.42-.1-1.59-1.8-1.54-4-.62-6.25l0-.06a5.87,5.87,0,0,1-3.57-1.76c-1.4-1.61-1.56-4.38.93-6.44,1.86-1.55,4.24-1.57,5.64.2,1.16,1.44,1.15,3.3-.26,6.25l0,.06c2.31.31,4.88.7,6.57,1a12.75,12.75,0,0,0-1.77-5.13c.58-.46,1.17-.91,1.76-1.36a13.51,13.51,0,0,1,1.87,6.74c1.37.18,2.72.39,4.24.63C138.28,121.63,137.55,122.19,136.83,122.76Zm-4.1-.59c-1.56-.22-4.48-.59-7.51-1a4.24,4.24,0,0,0,.5,4.26,3.56,3.56,0,0,0,5.12.29A5.29,5.29,0,0,0,132.73,122.17Zm-11.17-4.64a4.78,4.78,0,0,0,3.12,1.49c.8-2,1.18-3.5.24-4.65a2.12,2.12,0,0,0-3.15-.34A2.34,2.34,0,0,0,121.56,117.53Z"/><path class="cls-3" d="M135.25,102.37a24.5,24.5,0,0,1,3.55-2.91c2.07-1.4,3.64-2,5.13-1.88a3.55,3.55,0,0,1,3,1.75,4.29,4.29,0,0,1-.59,5l0,0A4.53,4.53,0,0,1,152,106a4.67,4.67,0,0,1,.59,3.79c-.45,1.62-1.86,3.16-4.28,4.81a31.92,31.92,0,0,1-3.07,1.88Zm6.14,4.46,1.81-1.24c2.12-1.44,2.71-3.3,1.78-4.72-1.11-1.72-3-1.46-5.08-.05a11.13,11.13,0,0,0-1.73,1.38C139.24,103.74,140.31,105.29,141.39,106.83Zm4.78,6.91a13.5,13.5,0,0,0,1.67-1c2-1.36,3.4-3.28,2-5.43-1.3-2-3.68-1.65-5.85-.16l-1.65,1.12Z"/><path class="cls-3" d="M150.28,92.28q2.67,4.45,5.33,8.9c2,3.36,4.43,3.86,6.52,2.66,2.33-1.34,3-3.66,1.17-7.07l-5-9.1,2.24-1.21q2.4,4.52,4.81,9c2.51,4.76,1,8.07-2.39,10-3.18,1.82-6.61,1.53-9.47-3.09l-5.4-8.79C148.83,93.15,149.55,92.71,150.28,92.28Z"/><path class="cls-3" d="M166.68,83.31q3.9,7.86,7.79,15.7l-2.08,1q-4-7.82-8-15.61C165.18,84.06,165.93,83.69,166.68,83.31Z"/><path class="cls-3" d="M170.65,81.39l2.29-1.06q3.26,7.1,6.53,14.19c2.36-1.09,4.75-2.13,7.16-3.14.24.59.48,1.17.73,1.75q-4.67,2-9.22,4.1Z"/><path class="cls-3" d="M183.3,76.11a34.33,34.33,0,0,1,4.9-2.3c3.41-1.29,6.14-1.43,8.22-.63A7.58,7.58,0,0,1,201,78.29a9.17,9.17,0,0,1-.42,7.32c-1.11,2.11-3.47,3.86-6.77,5.12-1.56.6-2.89,1-4,1.36Q186.52,84.1,183.3,76.11Zm8,13.49a16.38,16.38,0,0,0,2.29-.74c4.72-1.77,6.48-5.19,5-9.68-1.28-3.92-4.62-5.61-9.63-3.74a15.49,15.49,0,0,0-2.68,1.28Z"/></g></g></svg>