<svg xmlns="http://www.w3.org/2000/svg" viewBox="0 0 140.53 126.38"><defs><style>.cls-1{fill:#fff;}</style></defs><title>Asset 24</title><g id="Layer_2" data-name="Layer 2"><g id="create"><path class="cls-1" d="M18.71,116.45a13,13,0,0,1-1.54,4.63c-2.36,4.53-6.8,6.72-12,4.31-5-2.29-6.6-7.7-3.75-13.15a11.22,11.22,0,0,1,2.89-3.74c.45.47.89,1,1.33,1.42a9.78,9.78,0,0,0-2.5,3.13c-2.13,4.07-1.07,8,3.07,10,3.88,1.86,7.47.7,9.52-3.24A10.31,10.31,0,0,0,16.9,116Z"/><path class="cls-1" d="M5.6,105.63a26.56,26.56,0,0,1,2.12-4.38c1.39-2.33,2.69-3.58,4.17-4.08a4.1,4.1,0,0,1,3.62.5,4.72,4.72,0,0,1,1.89,5.4l.07,0c1.16-1,2.68-1,4.45-.45a29.84,29.84,0,0,0,4.82,1.39c-.44.68-.87,1.36-1.3,2a23.87,23.87,0,0,1-4.2-1.17c-2.34-.81-3.65-.43-4.84,1.42-.39.65-.78,1.31-1.16,2l6.57,3.82c-.4.67-.79,1.35-1.17,2Zm8.16,1.82c.42-.72.84-1.44,1.27-2.16,1.33-2.23,1.08-4.33-.62-5.39-1.91-1.2-3.72-.18-5.1,2.09a10.74,10.74,0,0,0-1.08,2.24Z"/><path class="cls-1" d="M26.82,89.32q-2.12,3-4.16,6l5.24,3.53c1.47-2.18,3-4.34,4.52-6.46L34,93.48q-3,4.09-5.78,8.34L13.54,92.19q2.91-4.41,6-8.67l1.54,1.12C19.51,86.78,18,89,16.52,91.15l4.59,3.09c1.37-2,2.77-4,4.2-6Z"/><path class="cls-1" d="M33.14,85.36q1.61,2.44,3.24,4.85c-.49.64-1,1.28-1.44,1.93q-5.23-7.67-10.1-15.67l1.88-2.38Q35.63,77,44.29,80.35l-1.59,1.9c-1.82-.69-3.66-1.36-5.49-2C35.83,81.93,34.47,83.63,33.14,85.36Zm2.38-5.85c-1.68-.59-3.38-1.17-5.08-1.74-1.16-.38-2.15-.81-3.12-1.21l0,0c.63.87,1.28,1.78,1.89,2.72q1.41,2.31,2.87,4.57C33.19,82.42,34.35,81,35.52,79.51Z"/><path class="cls-1" d="M35.22,67c-1.29,1.46-2.57,2.94-3.82,4.44L29.93,70.2q4.62-5.51,9.56-10.71l1.4,1.32q-2,2.13-4,4.32L48.47,75.58l-1.56,1.75Z"/><path class="cls-1" d="M54.52,57.62q-2.62,2.49-5.17,5.07l4.5,4.44q2.74-2.79,5.6-5.48L60.75,63q-3.66,3.47-7.17,7.08L41,57.93c2.43-2.5,4.91-5,7.44-7.35L49.72,52c-1.91,1.81-3.79,3.66-5.64,5.53L48,61.37c1.71-1.73,3.44-3.43,5.21-5.11Z"/><path class="cls-1" d="M75.81,50.08l-2.39-.3a7.75,7.75,0,0,1-2.8,4.87c-2.66,2.23-5.68,1.86-7.42-.11-1.58-1.79-1.54-4-.61-6.24l-.06-.06A5.87,5.87,0,0,1,59,46.48c-1.4-1.61-1.56-4.38.93-6.45,1.86-1.54,4.24-1.56,5.64.21,1.16,1.44,1.15,3.29-.26,6.24l0,.06c2.31.32,4.88.71,6.57,1a12.72,12.72,0,0,0-1.77-5.12L71.88,41a13.51,13.51,0,0,1,1.87,6.74c1.37.18,2.72.38,4.25.62C77.26,48.94,76.53,49.51,75.81,50.08Zm-4.1-.6c-1.56-.21-4.48-.58-7.51-.95a4.24,4.24,0,0,0,.5,4.26,3.56,3.56,0,0,0,5.12.29A5.25,5.25,0,0,0,71.71,49.48ZM60.54,44.85a4.77,4.77,0,0,0,3.12,1.48c.8-2,1.18-3.49.24-4.65a2.13,2.13,0,0,0-3.15-.34A2.35,2.35,0,0,0,60.54,44.85Z"/><path class="cls-1" d="M74.23,29.69a24.5,24.5,0,0,1,3.55-2.91c2.07-1.41,3.64-2,5.13-1.88a3.54,3.54,0,0,1,3,1.74,4.29,4.29,0,0,1-.59,5l0,0A4.53,4.53,0,0,1,91,33.27a4.66,4.66,0,0,1,.59,3.79c-.45,1.62-1.86,3.15-4.28,4.81a31.92,31.92,0,0,1-3.07,1.88Zm6.14,4.46,1.81-1.25c2.12-1.43,2.71-3.29,1.78-4.71-1.11-1.72-3-1.47-5.08-.05a11.27,11.27,0,0,0-1.73,1.37Zm4.78,6.9a12.73,12.73,0,0,0,1.68-1c2-1.36,3.39-3.29,2-5.43S85.16,33,83,34.43l-1.64,1.13Z"/><path class="cls-1" d="M89.26,19.6q2.67,4.44,5.33,8.9c2,3.36,4.43,3.86,6.52,2.65,2.33-1.33,3-3.65,1.17-7.06l-5-9.1,2.24-1.21,4.81,9c2.51,4.76,1,8.06-2.39,10-3.18,1.82-6.6,1.53-9.47-3.09l-5.4-8.8Z"/><path class="cls-1" d="M105.67,10.63l7.78,15.7c-.69.34-1.39.69-2.08,1.05l-8-15.62C104.16,11.38,104.91,11,105.67,10.63Z"/><path class="cls-1" d="M109.63,8.71l2.29-1.07q3.26,7.1,6.53,14.2,3.54-1.64,7.16-3.14c.24.58.48,1.17.73,1.75q-4.66,1.95-9.22,4.1Q113.39,16.63,109.63,8.71Z"/><path class="cls-1" d="M122.28,3.42a34.86,34.86,0,0,1,4.9-2.3C130.6-.17,133.32-.3,135.4.5A7.56,7.56,0,0,1,140,5.61a9.17,9.17,0,0,1-.42,7.32c-1.11,2.1-3.47,3.86-6.77,5.12-1.56.59-2.89,1-4,1.36Zm8,13.5a16.38,16.38,0,0,0,2.29-.74c4.72-1.78,6.48-5.19,5-9.68-1.28-3.93-4.62-5.62-9.63-3.74A14.78,14.78,0,0,0,125.24,4Z"/></g></g></svg>