<svg xmlns="http://www.w3.org/2000/svg" viewBox="0 0 264.5 264"><defs><style>.cls-1{fill:#232641;}.cls-2{fill:none;stroke:#c18b2b;stroke-miterlimit:10;}.cls-3{fill:#fff;}</style></defs><title>Asset 18</title><g id="Layer_2" data-name="Layer 2"><g id="live1"><path class="cls-1" d="M.5,263.5.28,0H.5C145.05,0,264,119,264,263.5Z"/><line class="cls-2" x1="0.5" y1="0.5" x2="0.5" y2="263.5"/><line class="cls-2" x1="264.5" y1="263.5" x2="0.5" y2="263.5"/></g><g id="live"><path class="cls-3" d="M89.74,73.13c.82.28,1.63.58,2.44.88q-2.7,7.32-5.39,14.66,3.7,1.36,7.33,2.88c-.25.58-.49,1.17-.74,1.75q-4.66-2-9.47-3.65Q86.82,81.38,89.74,73.13Z"/><path class="cls-3" d="M105.15,79.31q-3.62,8-7.22,16l-2.14-1,7-16.06Z"/><path class="cls-3" d="M105.21,98.77q1.33-9.15,2.09-18.47l2.51,1.19c-.33,3-.69,6.07-1.11,9.08a61.78,61.78,0,0,1-1.2,6.74l0,0a61.12,61.12,0,0,1,4.92-4.79q3.45-3.06,7-6l2.38,1.34Q114.45,93.7,107.5,100Z"/><path class="cls-3" d="M127.28,102.11q-3-2-6.18-3.91l-3.27,5.41q3.38,2,6.65,4.22l-1,1.58q-4.22-2.8-8.58-5.37l8.87-15.11q4.62,2.71,9.06,5.66l-1.05,1.58c-2.23-1.48-4.5-2.92-6.79-4.31q-1.44,2.37-2.87,4.74c2.11,1.28,4.19,2.59,6.25,4Z"/><path class="cls-3" d="M139.33,121.35c-.07-.7-.12-1.39-.19-2.39a7.87,7.87,0,0,1-5.37-1.73c-2.73-2.13-3-5.15-1.5-7.29,1.41-1.93,3.61-2.36,6-1.92l0-.06a5.86,5.86,0,0,1,.94-3.89c1.26-1.71,4-2.44,6.56-.41,1.94,1.53,2.47,3.87,1,5.61-1.18,1.42-3,1.78-6.21,1l0,.06c.19,2.34.35,4.94.45,6.65a12.82,12.82,0,0,0,4.67-2.78l1.7,1.46a13.54,13.54,0,0,1-6.23,3.19c.11,1.39.18,2.75.25,4.29Zm-.27-4.14c-.11-1.56-.37-4.51-.67-7.56a4.25,4.25,0,0,0-4.07,1.39,3.58,3.58,0,0,0,.83,5.08A5.26,5.26,0,0,0,139.06,117.21Zm2.14-11.92a4.78,4.78,0,0,0-.77,3.38c2.14.37,3.7.44,4.63-.72a2.13,2.13,0,0,0-.36-3.17A2.35,2.35,0,0,0,141.2,105.29Z"/><path class="cls-3" d="M159.69,129.25q-2.52-2.64-5.13-5.18c-1.47,1.51-2.93,3-4.4,4.52,1.87,1.83,3.71,3.7,5.5,5.6l-1.38,1.3c-2.3-2.44-4.68-4.83-7.12-7.14l12.06-12.72q3.85,3.66,7.52,7.53l-1.38,1.3c-1.84-1.94-3.71-3.84-5.63-5.71l-3.86,4c1.76,1.72,3.48,3.46,5.18,5.24Z"/><path class="cls-3" d="M156.33,137.7l12.95-11.8c.63.69,1.25,1.37,1.86,2.07q-1.23,5.29-2.71,10.46a39.43,39.43,0,0,1-2.32,6.17l.06,0c1.69-1.63,3.32-3,5.45-4.71l5.72-4.59,1.49,1.89L165,148l-1.46-1.84q1.68-5,3.12-10.17c.62-2.27,1.29-4.55,2-6.55l-.08,0c-1.55,1.58-3.09,3-5.27,4.95l-5.59,5Z"/><path class="cls-3" d="M183.92,144l1.47,2.09-9.64,6.69c-3.83,2.64-6.33,1.52-8.17-1a8.23,8.23,0,0,1-1.15-2.24l1.68-.84a5.89,5.89,0,0,0,.91,1.78c1.25,1.69,2.7,2.17,5.5.19Z"/><path class="cls-3" d="M189,168.31c-5.32,2.84-9.92,1-12.29-2.88s-1.37-8.8,3-11.79c4.59-3.13,9.83-1.93,12.6,2.66S193.57,165.86,189,168.31Zm-7.79-12.52c-3.13,2.06-4.77,5.65-2.85,8.8s5.81,3.43,9.29,1.49c3-1.68,5.25-5.27,3-8.93S184.41,153.68,181.2,155.79Z"/><path class="cls-3" d="M184.06,178.2l6.66-3.31q3.18-4.94,6.12-10.11l1.37,2.59c-1,1.58-2,3.14-3,4.68-.85,1.27-1.55,2.26-2.38,3.33l0,.05c1.27,0,2.59.08,4.11.19,1.85.15,3.72.33,5.58.53.41.9.82,1.8,1.21,2.7q-6-1.07-11.88-1.75l-6.72,3.24C184.77,179.62,184.42,178.91,184.06,178.2Z"/></g></g></svg>