<svg xmlns="http://www.w3.org/2000/svg" viewBox="0 0 119.8 107.21"><defs><style>.cls-1{fill:#fff;}</style></defs><title>Asset 25</title><g id="Layer_2" data-name="Layer 2"><g id="live"><path class="cls-1" d="M5.84,0,8.28.88,2.88,15.54q3.7,1.37,7.33,2.89c-.25.58-.49,1.16-.73,1.75Q4.8,18.22,0,16.52,2.93,8.27,5.84,0Z"/><path class="cls-1" d="M21.24,6.19q-3.6,8-7.21,16l-2.15-1q3.51-8,7-16.06C19.67,5.48,20.46,5.83,21.24,6.19Z"/><path class="cls-1" d="M21.3,25.64q1.34-9.15,2.09-18.47L25.9,8.36q-.48,4.56-1.1,9.09a64.17,64.17,0,0,1-1.21,6.74l.05,0a61.08,61.08,0,0,1,4.92-4.78q3.45-3.08,7-6c.8.45,1.59.89,2.38,1.35q-7.43,5.84-14.37,12.09Z"/><path class="cls-1" d="M43.38,29c-2-1.34-4.1-2.65-6.19-3.91l-3.27,5.4q3.38,2,6.65,4.23l-1,1.58q-4.22-2.8-8.58-5.38L39.82,15.8q4.6,2.72,9,5.66l-1,1.58q-3.34-2.22-6.79-4.3l-2.87,4.73q3.17,1.92,6.25,4C44.06,28,43.72,28.47,43.38,29Z"/><path class="cls-1" d="M55.42,48.23c-.07-.71-.12-1.39-.19-2.4a7.78,7.78,0,0,1-5.36-1.73c-2.74-2.13-3-5.15-1.51-7.28,1.41-1.94,3.61-2.37,6-1.93l0-.06A5.79,5.79,0,0,1,55.34,31c1.27-1.72,4-2.45,6.56-.41,1.94,1.52,2.47,3.86,1,5.6-1.18,1.43-3,1.79-6.2,1l0,.06c.19,2.34.35,4.95.45,6.65a12.92,12.92,0,0,0,4.67-2.77l1.7,1.45a13.57,13.57,0,0,1-6.23,3.2c.11,1.38.18,2.74.25,4.29Q56.49,49.12,55.42,48.23Zm-.26-4.14c-.12-1.57-.38-4.51-.68-7.56a4.22,4.22,0,0,0-4.07,1.38A3.58,3.58,0,0,0,51.24,43,5.28,5.28,0,0,0,55.16,44.09Zm2.13-11.93a4.86,4.86,0,0,0-.77,3.38c2.14.38,3.7.44,4.63-.71a2.15,2.15,0,0,0-.35-3.18A2.38,2.38,0,0,0,57.29,32.16Z"/><path class="cls-1" d="M75.78,56.13c-1.68-1.77-3.38-3.49-5.13-5.19l-4.4,4.53q2.81,2.73,5.51,5.6l-1.39,1.3c-2.3-2.45-4.68-4.83-7.11-7.14L75.31,42.51q3.85,3.66,7.52,7.52l-1.38,1.31c-1.84-1.94-3.71-3.85-5.63-5.71L72,49.6q2.64,2.57,5.18,5.24Z"/><path class="cls-1" d="M72.42,64.57l13-11.79c.62.68,1.24,1.37,1.85,2.06Q86,60.15,84.52,65.3a39.58,39.58,0,0,1-2.32,6.18l.06,0c1.69-1.63,3.32-3,5.45-4.71l5.72-4.58c.5.62,1,1.25,1.49,1.88L81.11,74.88c-.48-.62-1-1.23-1.46-1.84,1.13-3.34,2.16-6.73,3.12-10.18.63-2.26,1.29-4.55,2-6.54l-.07,0c-1.56,1.58-3.1,3-5.27,4.95l-5.6,5Z"/><path class="cls-1" d="M100,70.91c.5.69,1,1.39,1.47,2.09l-9.63,6.68c-3.84,2.64-6.34,1.52-8.18-1a8.05,8.05,0,0,1-1.15-2.23l1.68-.84a5.89,5.89,0,0,0,.91,1.78c1.25,1.68,2.7,2.17,5.5.18Z"/><path class="cls-1" d="M105.08,95.18c-5.32,2.85-9.92,1-12.29-2.88s-1.37-8.8,3-11.79c4.59-3.13,9.83-1.92,12.61,2.66S109.66,92.74,105.08,95.18ZM97.3,82.66c-3.14,2.07-4.78,5.65-2.86,8.8s5.81,3.43,9.3,1.5c3-1.69,5.24-5.28,3-8.93S100.51,80.56,97.3,82.66Z"/><path class="cls-1" d="M100.15,105.08l6.66-3.32q3.18-4.94,6.12-10.1c.47.86.92,1.72,1.38,2.59-1,1.58-2,3.13-3,4.68-.84,1.26-1.55,2.25-2.38,3.32l0,.06c1.27,0,2.59.07,4.11.18q2.79.24,5.59.54c.41.89.81,1.79,1.2,2.69-4-.7-7.93-1.29-11.88-1.74l-6.72,3.23Q100.69,106.15,100.15,105.08Z"/></g></g></svg>