<svg xmlns="http://www.w3.org/2000/svg" viewBox="0 0 714 714"><defs><style>.cls-1{fill:#f4f4f4;}.cls-2,.cls-3{fill:none;stroke-width:1.02px;}.cls-2,.cls-3,.cls-4,.cls-5{stroke:#ce9538;stroke-miterlimit:10;}.cls-3{stroke-dasharray:10.02 10.02;}.cls-4,.cls-5{fill:#fff;}.cls-4{stroke-width:0.68px;}.cls-5{stroke-width:0.32px;}.cls-6{fill:#3b4775;}</style></defs><title>Asset 10</title><g id="Layer_2" data-name="Layer 2"><g id="plan"><circle class="cls-1" cx="357" cy="357" r="357"/><path class="cls-2" d="M525.84,100.44l4.22,2.83"/><path class="cls-3" d="M538.38,108.83c16.09,10.8,32.1,22.1,45.59,37.17,2,2,5,4,7,6,39,42,66,89,78,147,8,39,9,75,3,114-8,50-26,93-57,134-24.86,32.22-53.1,58.5-86.54,78.21"/><path class="cls-2" d="M524.09,627.72q-2.21,1.24-4.45,2.46"/><path class="cls-2" d="M192.63,98.44l-4.22,2.83"/><path class="cls-3" d="M180.08,106.83C164,117.63,148,128.93,134.5,144c-2,2-5,4-7,6-39,42-66,89-78,147-8,39-9,75-3,114,8,50,26,93,57,134,24.85,32.22,53.09,58.5,86.53,78.21"/><path class="cls-2" d="M194.37,625.72q2.22,1.24,4.45,2.46"/><circle class="cls-4" cx="43" cy="357.5" r="13"/><circle class="cls-5" cx="46.5" cy="316" r="6"/><circle class="cls-5" cx="44.5" cy="396" r="6"/><path class="cls-6" d="M232.14,76.34l3.65,7.89-1.72.8q-4.55-9.65-9.08-19.3c2.48-1.17,5-2.3,7.48-3.4a9,9,0,0,1,6.1-.74,5.52,5.52,0,0,1,3.75,3.51,5.7,5.7,0,0,1-.12,5.06,9.3,9.3,0,0,1-4.71,3.78Q234.8,75.11,232.14,76.34ZM231.5,75c1.8-.83,3.61-1.65,5.42-2.44a6.72,6.72,0,0,0,3.51-2.86,4.26,4.26,0,0,0,.06-3.79,4.37,4.37,0,0,0-2.76-2.67,6.47,6.47,0,0,0-4.53.48q-2.87,1.25-5.72,2.57Z"/><path class="cls-6" d="M253.07,75.31q5.18-1.95,10.39-3.7l.48,1.44q-6.09,2-12.09,4.37-3.85-9.94-7.7-19.89l1.9-.74Z"/><path class="cls-6" d="M277.5,62.69q-4.94,1.35-9.84,2.87c-.15,2.14-.28,4.27-.4,6.41l-1.86.6q.66-11.43,2-22.95l1.83-.53q7.28,9,14,18.31l-1.88.49Q279.42,65.28,277.5,62.69Zm-9.73,1.24c2.91-.9,5.82-1.75,8.75-2.55q-3.74-5-7.63-9.91Q268.23,57.71,267.77,63.93Z"/><path class="cls-6" d="M302.32,63.24l-1.82.33q-7.89-7.8-16.55-15.15l4.17,17.76-1.82.44q-2.51-10.37-5-20.73l2-.47Q292,52.76,300,60.56l-3.36-18,2-.36Z"/><path class="cls-6" d="M317.16,49.27a14.77,14.77,0,0,1-2.31-2.48,5.19,5.19,0,0,1-.93-2.3,4.46,4.46,0,0,1,1-3.7A5.66,5.66,0,0,1,318.71,39a5.27,5.27,0,0,1,3.74.8,3.71,3.71,0,0,1,1.66,2.85c.13,1.4-.62,2.85-2.22,4.38l-2.31,2.07q3.5,3,6.84,6.18a8.86,8.86,0,0,0,1-5l1.72-.14a9.76,9.76,0,0,1-1.47,6.28q1.65,1.56,3.27,3.15l-2.16.17-2.08-2a8.89,8.89,0,0,1-2.58,2,8.59,8.59,0,0,1-3.2,1,7.63,7.63,0,0,1-5.13-1A5.24,5.24,0,0,1,313.38,56a5,5,0,0,1,.57-3,13.66,13.66,0,0,1,3-3.52Zm3.58,10.1a6.85,6.85,0,0,0,2.6-.84,7.65,7.65,0,0,0,2.16-1.82q-3.4-3.15-6.95-6.23l-.25-.19-.65.59c-1.84,1.79-2.64,3.42-2.45,4.88A3.87,3.87,0,0,0,317,58.64,5.57,5.57,0,0,0,320.74,59.37Zm-4.92-15.18c.14,1.19,1,2.49,2.62,3.94l1.89-1.68a7.57,7.57,0,0,0,1.5-1.64,2.94,2.94,0,0,0,.47-2,2.44,2.44,0,0,0-1.06-1.81,3.31,3.31,0,0,0-2.39-.53,3.37,3.37,0,0,0-2.39,1.21A3.13,3.13,0,0,0,315.82,44.19Z"/><path class="cls-6" d="M343.2,50.32l.24,8.68-1.85.06-.72-21.32q4-.14,8-.17a8.78,8.78,0,0,1,5.78,1.72,5.6,5.6,0,0,1,2,4.71,5.73,5.73,0,0,1-2.07,4.6,9,9,0,0,1-5.7,1.62C347,50.23,345.12,50.26,343.2,50.32Zm0-1.53c1.94,0,3.88-.08,5.82-.1a6.55,6.55,0,0,0,4.26-1.24A4.35,4.35,0,0,0,354.76,44a4.45,4.45,0,0,0-1.45-3.55A6.26,6.26,0,0,0,349,39.1c-2.05,0-4.09,0-6.14.1C343,42.4,343.07,45.6,343.16,48.79Z"/><path class="cls-6" d="M369.29,50.6c-2.19-.15-4.37-.26-6.56-.35q-.18,4.44-.37,8.88l-1.86-.07q.38-10.65.74-21.31c2.55.08,5.1.21,7.65.36a9.08,9.08,0,0,1,5.76,2.06,5.94,5.94,0,0,1,.1,8.28,6.76,6.76,0,0,1-3.59,1.89q2.49,4.72,4.81,9.5V60l-2-.17Q371.73,55.21,369.29,50.6Zm-6.5-1.87q2.94.12,5.88.3a5.84,5.84,0,0,0,4-1,4.3,4.3,0,0,0,1.74-3.22,4.22,4.22,0,0,0-1.29-3.62,6.82,6.82,0,0,0-4.33-1.54c-1.86-.11-3.72-.21-5.59-.29Z"/><path class="cls-6" d="M397.66,53.25a11.89,11.89,0,0,1-1.9,4.93,8,8,0,0,1-3.51,2.91,8.68,8.68,0,0,1-4.62.56,8.12,8.12,0,0,1-5.85-3.42,10.57,10.57,0,0,1-1.63-7.43c.07-.73.15-1.46.22-2.18a11.35,11.35,0,0,1,1.65-5,8,8,0,0,1,3.58-3.08,9.13,9.13,0,0,1,4.92-.6,9.35,9.35,0,0,1,4.6,1.86,7.81,7.81,0,0,1,2.63,3.81,11.06,11.06,0,0,1,.33,5.14Zm-1.52-2.6a8.79,8.79,0,0,0-.94-6.25A7.19,7.19,0,0,0,384.87,43a8.81,8.81,0,0,0-2.58,5.86c-.09.74-.17,1.47-.25,2.21a9.28,9.28,0,0,0,1.16,6.18,6.8,6.8,0,0,0,9.85,1.36,9.45,9.45,0,0,0,2.73-5.75Z"/><path class="cls-6" d="M419.52,47.18q-3.93-.95-7.89-1.78l-4.08,19.38-1.82-.37q2-9.7,3.95-19.41c-2.63-.54-5.27-1-7.92-1.5L402,42q9,1.57,17.85,3.7Z"/><path class="cls-6" d="M433.06,60.75q-5.15-1.55-10.32-2.89l-2.19,8.42q5.77,1.5,11.49,3.26L431.59,71q-6.57-2-13.23-3.7Q421,57,423.6,46.61q7.13,1.81,14.18,4L437.33,52q-6.06-1.86-12.17-3.45c-.68,2.6-1.36,5.19-2,7.79q5.21,1.36,10.37,2.91C433.35,59.78,433.2,60.27,433.06,60.75Z"/><path class="cls-6" d="M452.56,71.23a7.7,7.7,0,0,1-4.22,3.91,8.87,8.87,0,0,1-5.95-.27,8.29,8.29,0,0,1-3.74-2.55,8,8,0,0,1-1.76-4.12,11.5,11.5,0,0,1,.5-5.06l.84-2.64A11.08,11.08,0,0,1,440.81,56a7.78,7.78,0,0,1,4.08-2.23,9.33,9.33,0,0,1,4.94.44,9,9,0,0,1,5.06,3.82,7.28,7.28,0,0,1,.56,5.69L453.59,63c.83-3.55-.59-6-4.27-7.35a6.36,6.36,0,0,0-5.56.38,8.67,8.67,0,0,0-3.67,5.1l-.82,2.48a9.25,9.25,0,0,0-.15,6.15,5.85,5.85,0,0,0,3.78,3.63,6.59,6.59,0,0,0,4.66.25,6.47,6.47,0,0,0,3.19-3.14Z"/><path class="cls-6" d="M476.32,67.11q-3.72-1.76-7.49-3.4-4,9.08-7.93,18.15l-1.73-.75q3.9-9.1,7.81-18.2-3.76-1.62-7.56-3.12c.18-.47.37-.95.56-1.42q8.58,3.41,17,7.36Z"/><path class="cls-6" d="M248.14,632.73,245.37,641l-1.86-.63q3.45-10.08,6.91-20.18,3.54,1.22,7.09,2.35a8.2,8.2,0,0,1,4.65,3.23,5.87,5.87,0,0,1,.57,5,5.64,5.64,0,0,1-3.2,3.88,8.48,8.48,0,0,1-5.91-.13Q250.88,633.65,248.14,632.73Zm.49-1.44,5.49,1.8a6.25,6.25,0,0,0,4.41.07,4.3,4.3,0,0,0,2.39-2.9,4.57,4.57,0,0,0-.33-3.79,5.85,5.85,0,0,0-3.43-2.48c-1.83-.59-3.65-1.18-5.47-1.8Z"/><path class="cls-6" d="M265,645.4q5.47,1.53,11,2.89c-.13.5-.25,1-.37,1.48-4.32-1.07-8.64-2.21-12.93-3.44q2.93-10.25,5.84-20.51l1.79.51Q267.63,635.85,265,645.4Z"/><path class="cls-6" d="M292.87,647.51q-5-1-10.07-2.18-1.8,2.65-3.66,5.3l-2-.48q6.75-9.33,13.06-18.87l1.71.37q1.8,11.28,4.08,22.58l-2-.38Q293.43,650.67,292.87,647.51ZM283.72,644c2.95.68,5.9,1.31,8.86,1.92q-1.06-6.15-2-12.29Q287.23,638.83,283.72,644Z"/><path class="cls-6" d="M316.25,657.51l-1.93-.26q-5.26-10-9.9-20l-3.15,18-1.93-.34q1.89-10.5,3.79-21l1.82.32q4.59,10.08,9.81,20,1.28-9,2.53-18.09l1.8.24Q317.66,646.94,316.25,657.51Z"/><path class="cls-6" d="M334.33,647.84a13,13,0,0,1-1.67-2.92,5.43,5.43,0,0,1-.37-2.44,4.74,4.74,0,0,1,1.69-3.4,5.15,5.15,0,0,1,3.74-1,4.8,4.8,0,0,1,3.25,1.44,3.92,3.92,0,0,1,1.07,3.07c-.1,1.41-1,2.73-2.81,4l-2.57,1.61q2.76,3.66,5.64,7.27a8.67,8.67,0,0,0,1.72-4.78l1.7.1a9.48,9.48,0,0,1-2.35,6q1.44,1.8,2.91,3.58l-2.26-.13L342.18,658a9.06,9.06,0,0,1-6.46,1.95,7.84,7.84,0,0,1-5-2,5.27,5.27,0,0,1-.23-7.15A14.77,14.77,0,0,1,334.1,648Zm1.51,10.61a7,7,0,0,0,2.8-.34,7.57,7.57,0,0,0,2.51-1.43q-2.92-3.67-5.74-7.38l-.19-.24-.75.45c-2.14,1.38-3.29,2.78-3.43,4.24a3.75,3.75,0,0,0,1.1,3.2A5.69,5.69,0,0,0,335.84,658.45Zm-1.74-15.86q-.17,1.78,1.66,4.39l2.11-1.3a6.89,6.89,0,0,0,1.7-1.35,3.05,3.05,0,0,0,.76-1.84,2.54,2.54,0,0,0-.67-2,3,3,0,0,0-2.08-.94,3.07,3.07,0,0,0-2.4.72A3.34,3.34,0,0,0,334.1,642.59Z"/><path class="cls-6" d="M359.58,652.17l-.18,8.68-1.93,0q.27-10.66.55-21.32,3.68.09,7.37.11a8.08,8.08,0,0,1,5.34,1.69,5.91,5.91,0,0,1,2,4.65,5.7,5.7,0,0,1-1.87,4.66,8.31,8.31,0,0,1-5.62,1.64C363.38,652.23,361.48,652.21,359.58,652.17Zm0-1.52c1.9,0,3.8.06,5.71.07a6.06,6.06,0,0,0,4.17-1.25,4.32,4.32,0,0,0,1.41-3.48,4.65,4.65,0,0,0-1.44-3.52,5.73,5.73,0,0,0-4-1.34c-1.9,0-3.79,0-5.69-.08C359.75,644.25,359.68,647.45,359.62,650.65Z"/><path class="cls-6" d="M385.44,651.6q-3.24.17-6.5.26.15,4.46.28,8.89l-2,.06q-.28-10.66-.56-21.32c2.35-.07,4.69-.15,7-.26a8.32,8.32,0,0,1,5.5,1.37,5.75,5.75,0,0,1,2.26,4.49,5.56,5.56,0,0,1-1,3.68,6.34,6.34,0,0,1-3.24,2.36c2,2.92,4.09,5.83,6.21,8.72V660l-2.06.13Q388.37,655.91,385.44,651.6Zm-6.54-1.26c1.92-.06,3.84-.13,5.77-.22a5.43,5.43,0,0,0,3.73-1.49,4.26,4.26,0,0,0,1.23-3.42,4.36,4.36,0,0,0-1.68-3.42,6.28,6.28,0,0,0-4.17-1c-1.73.08-3.45.14-5.18.2Z"/><path class="cls-6" d="M413.45,648.56a11.74,11.74,0,0,1-.43,5.26,7.8,7.8,0,0,1-2.69,3.77,8.83,8.83,0,0,1-4.54,1.7,8.21,8.21,0,0,1-6.69-2.07,10.09,10.09,0,0,1-3-7c-.06-.73-.11-1.46-.17-2.19a12,12,0,0,1,.66-5.23,8.05,8.05,0,0,1,2.69-3.7,8.95,8.95,0,0,1,8.8-.91,8,8,0,0,1,3.35,3,12,12,0,0,1,1.72,4.85C413.24,646.87,413.35,647.72,413.45,648.56Zm-2.15-2.07a9.39,9.39,0,0,0-2.49-5.78,6.08,6.08,0,0,0-5.1-1.65,6,6,0,0,0-4.61,2.64,9.35,9.35,0,0,0-1.3,6.25l.18,2.21a9,9,0,0,0,2.36,5.84,6.91,6.91,0,0,0,10.14-1,9.21,9.21,0,0,0,1.09-6.27Z"/><path class="cls-6" d="M431,635.49q-3.68.66-7.37,1.24,1.54,9.78,3.08,19.56l-1.92.3q-1.49-9.8-3-19.58-3.68.56-7.37,1c-.07-.51-.14-1-.2-1.51q8.26-1.09,16.49-2.56Z"/><path class="cls-6" d="M448.35,641.77q-5.13,1.15-10.27,2.14.82,4.27,1.66,8.55c4-.79,8.06-1.63,12.07-2.55.12.5.23,1,.34,1.49q-7,1.59-14,2.92l-4-21q6.61-1.25,13.18-2.74c.11.49.23,1,.34,1.48q-5.7,1.3-11.42,2.41l1.53,7.91q5.13-1,10.22-2.13C448.13,640.78,448.24,641.28,448.35,641.77Z"/><path class="cls-6" d="M470.15,639.93a7.31,7.31,0,0,1-1.09,5.66,9,9,0,0,1-5.22,3.26,8.51,8.51,0,0,1-4.7,0,7.87,7.87,0,0,1-3.74-2.55,11.29,11.29,0,0,1-2.2-4.59l-.63-2.69a11.74,11.74,0,0,1-.16-5.15,7.82,7.82,0,0,1,2.06-4,8.27,8.27,0,0,1,4-2.24,8.09,8.09,0,0,1,5.84.34,7.77,7.77,0,0,1,3.69,4.27l-1.83.51c-1.43-3.36-3.85-4.55-7.31-3.65a5.89,5.89,0,0,0-4.07,3.28,9.22,9.22,0,0,0-.32,6.25c.21.84.41,1.69.62,2.53a8.91,8.91,0,0,0,3.13,5.3,5.88,5.88,0,0,0,5.27.93,6.63,6.63,0,0,0,4.09-2.5,6.22,6.22,0,0,0,.75-4.42Z"/><path class="cls-6" d="M484.67,621.6q-3.57,1.21-7.16,2.36,3,9.43,6,18.87l-1.86.59q-3-9.45-5.93-18.9-3.58,1.13-7.19,2.18c-.14-.49-.29-1-.43-1.46q8.07-2.36,16.06-5.09C484.34,620.63,484.51,621.11,484.67,621.6Z"/></g></g></svg>