<svg xmlns="http://www.w3.org/2000/svg" viewBox="0 0 133.9 115.4"><defs><style>.cls-1{fill:#fcfcfc;}</style></defs><title>Asset 27</title><g id="Layer_2" data-name="Layer 2"><g id="save"><path class="cls-1" d="M2,5.16A9.51,9.51,0,0,0,3,9.75c1.2,2.32,3,3.07,4.56,2.22S9.34,9.85,9,7.14c-.53-3.25,0-5.62,2.2-6.7,2.46-1.18,5.3.06,6.94,3.18a9.1,9.1,0,0,1,1.15,4l-1.93.32a8.07,8.07,0,0,0-.92-3.48C15.24,2.2,13.54,2,12.47,2.51c-1.46.74-1.68,2.12-1.3,4.87.48,3.37.05,5.5-2.2,6.75s-5.53.5-7.69-3.68A10.86,10.86,0,0,1,0,5.41Z"/><path class="cls-1" d="M12.86,19.43c-1.92.37-3.84.72-5.78,1.06L5.76,18.2Q15,16.79,24.13,14.86c.49.81,1,1.61,1.49,2.4q-5.76,7.29-11.16,15L13,30q1.72-2.38,3.49-4.74C15.22,23.32,14,21.39,12.86,19.43Zm4.8,4.41q1.64-2.13,3.28-4.25c.75-1,1.49-1.74,2.21-2.5l0-.05c-1,.32-2.09.62-3.19.87q-2.64.56-5.29,1.05C15.63,20.6,16.63,22.23,17.66,23.84Z"/><path class="cls-1" d="M17.69,36.89q5.26-7.71,10.91-15c.47.7.94,1.39,1.42,2.08q-2.76,3.61-5.43,7.3c-1.46,2-2.78,3.86-4.14,5.48l0,.05c2-.75,4.21-1.41,6.55-2.09,2.95-.87,5.88-1.77,8.79-2.72l1.53,2q-8.88,2.87-18,5.22Z"/><path class="cls-1" d="M37.57,48.74Q35.16,46,32.83,43.16l-4.88,4c1.77,2.16,3.59,4.3,5.45,6.39L32,54.82q-3.64-4.11-7.09-8.41l13.68-11q3,3.79,6.25,7.43L43.4,44.14q-2.48-2.79-4.84-5.68L34.28,42c1.53,1.87,3.1,3.72,4.7,5.53Z"/><path class="cls-1" d="M47.15,70.25c-.07-.73-.12-1.45-.17-2.49a8.12,8.12,0,0,1-5.48-2.5c-2.72-2.68-2.57-5.87-.67-7.68,1.73-1.65,4-1.66,6.25-.92l.05-.06a5.75,5.75,0,0,1,1.54-3.67,4.4,4.4,0,0,1,6.3.2,3.75,3.75,0,0,1,.31,5.45c-1.26,1.34-3.07,1.66-6.16.58l-.06.05c-.07,2.33-.09,5,0,6.71a11.73,11.73,0,0,0,4.81-2.52l1.64,1.49a12.21,12.21,0,0,1-6.37,3c.08,1.42.16,2.83.28,4.44C48.63,71.61,47.89,70.93,47.15,70.25ZM47,66c0-1.62-.11-4.63,0-7.69a4.38,4.38,0,0,0-4.25.78A3.59,3.59,0,0,0,43,64.34,5.54,5.54,0,0,0,47,66Zm3.36-11.64a4.75,4.75,0,0,0-1.23,3.22c2,.59,3.57.74,4.59-.33a2.11,2.11,0,0,0,.06-3.09A2.33,2.33,0,0,0,50.34,54.33Z"/><path class="cls-1" d="M68.72,65.73q-5.51,6.81-11,13.64c-.66-.53-1.31-1.06-1.95-1.6L66.93,64.26Z"/><path class="cls-1" d="M61.17,82.1,71.9,68.24l2,1.53c-.24,3.51-.41,7.06-.48,10.63A62.92,62.92,0,0,1,73,87H73a70.18,70.18,0,0,1,3.83-6.1L81,74.88c.6.42,1.21.82,1.81,1.23L73.07,90.67,71,89.23q0-5.42.19-10.76a45.62,45.62,0,0,1,.72-6.76l-.08,0c-1.22,1.84-2.45,3.55-4.21,5.88l-4.51,6Z"/><path class="cls-1" d="M80.39,95.37q1.86-9.15,4.21-18.08l2.1,1.36c-.76,2.92-1.48,5.87-2.16,8.83-.55,2.44-1.05,4.63-1.67,6.65l0,0c1.51-1.45,3.33-2.94,5.21-4.49q3.57-2.92,7-5.93L97.33,85q-7,6.12-14.55,11.86Z"/><path class="cls-1" d="M103.35,98.52q-3.31-1.59-6.57-3.29l-2.94,5.59c2.49,1.31,5,2.56,7.56,3.77l-.82,1.72q-5-2.39-9.85-5L99,85.89q4.29,2.31,8.69,4.41L106.92,92q-3.39-1.61-6.7-3.35c-.86,1.64-1.72,3.27-2.57,4.91,2.14,1.12,4.32,2.21,6.51,3.26Z"/><path class="cls-1" d="M104.41,105.05a9.29,9.29,0,0,0,3.66,2.88c2.38,1,4.25.46,4.91-1.18s0-2.76-2-4.61c-2.45-2.16-3.54-4.31-2.51-6.55,1.16-2.48,4.11-3.33,7.34-2A8.87,8.87,0,0,1,119.22,96l-1.3,1.47a7.84,7.84,0,0,0-2.89-2.1c-2.29-1-3.74-.06-4.23,1-.66,1.49,0,2.7,2.06,4.58,2.49,2.29,3.51,4.21,2.56,6.61s-4,3.89-8.26,2A10.66,10.66,0,0,1,103,106.5Z"/><path class="cls-1" d="M125.7,99.85c-1.76-.63-3.5-1.28-5.24-1.95.24-.6.47-1.2.7-1.79q6.27,2.43,12.74,4.46l-.57,1.83c-1.8-.56-3.58-1.14-5.36-1.75L122.9,115.4l-2.45-.86Z"/></g></g></svg>