<svg xmlns="http://www.w3.org/2000/svg" viewBox="0 0 263.72 263.5"><defs><style>.cls-1{fill:#232641;}.cls-2{fill:none;stroke:#c18b2b;stroke-miterlimit:10;}.cls-3{fill:#fcfcfc;}</style></defs><title>Asset 19</title><g id="Layer_2" data-name="Layer 2"><g id="save"><path class="cls-1" d="M263.5,0l.22,263.5h-.22C119,263.5,0,144.55,0,0Z"/><line class="cls-2" x1="0.22" y1="0.5" x2="263.22" y2="0.5"/><line class="cls-2" x1="263.22" y1="263.5" x2="263.22" y2="0.5"/></g><g id="save-2" data-name="save"><path class="cls-3" d="M81.82,97.77a9.33,9.33,0,0,0,1,4.59c1.19,2.31,3,3.07,4.55,2.22s1.77-2.13,1.38-4.84c-.53-3.24,0-5.61,2.2-6.69,2.46-1.18,5.3.06,6.94,3.18a8.8,8.8,0,0,1,1.15,4l-1.93.32A7.75,7.75,0,0,0,96.21,97c-1.15-2.22-2.85-2.44-3.92-1.91-1.47.74-1.69,2.12-1.3,4.87.48,3.37,0,5.49-2.21,6.75s-5.53.5-7.69-3.68a10.86,10.86,0,0,1-1.26-5Z"/><path class="cls-3" d="M92.67,112c-1.91.37-3.84.72-5.77,1.06-.45-.76-.89-1.53-1.32-2.29q9.28-1.41,18.37-3.34c.49.81,1,1.61,1.49,2.4q-5.77,7.29-11.16,15c-.51-.75-1-1.5-1.51-2.26,1.15-1.59,2.32-3.18,3.5-4.74C95,115.93,93.84,114,92.67,112Zm4.81,4.41c1.08-1.43,2.17-2.84,3.28-4.25.75-1,1.49-1.74,2.2-2.51l0,0c-1,.31-2.1.62-3.19.87q-2.64.54-5.3,1Q95.94,114,97.48,116.45Z"/><path class="cls-3" d="M97.5,129.49q5.28-7.7,10.92-15l1.41,2.08q-2.76,3.61-5.43,7.3c-1.46,2-2.77,3.85-4.13,5.48l0,0c2-.75,4.22-1.41,6.56-2.1,3-.86,5.88-1.77,8.79-2.71.5.66,1,1.31,1.52,2q-8.88,2.88-18,5.23C98.59,131,98,130.25,97.5,129.49Z"/><path class="cls-3" d="M117.39,141.34q-2.43-2.73-4.74-5.57l-4.89,4q2.67,3.24,5.46,6.39l-1.42,1.26q-3.66-4.11-7.1-8.42l13.68-10.95q3,3.8,6.25,7.43l-1.42,1.26c-1.64-1.86-3.26-3.76-4.83-5.68l-4.29,3.51c1.54,1.87,3.1,3.71,4.7,5.53Z"/><path class="cls-3" d="M127,162.86c-.07-.73-.11-1.45-.16-2.49a8.15,8.15,0,0,1-5.49-2.5c-2.71-2.68-2.57-5.87-.67-7.68,1.73-1.65,4-1.67,6.25-.93l.06,0a5.74,5.74,0,0,1,1.53-3.67,4.38,4.38,0,0,1,6.3.2,3.75,3.75,0,0,1,.32,5.44c-1.26,1.35-3.08,1.66-6.17.58l-.05.06c-.07,2.33-.09,5,0,6.71a11.83,11.83,0,0,0,4.82-2.52l1.63,1.49c-2.21,1.71-4.28,2.79-6.37,2.95.09,1.42.16,2.83.28,4.44C128.44,164.22,127.7,163.54,127,162.86Zm-.17-4.28c0-1.62-.1-4.63,0-7.69a4.38,4.38,0,0,0-4.25.78,3.6,3.6,0,0,0,.28,5.28A5.54,5.54,0,0,0,126.79,158.58Zm3.37-11.64a4.7,4.7,0,0,0-1.23,3.21c2,.6,3.56.75,4.58-.32a2.11,2.11,0,0,0,.07-3.09A2.32,2.32,0,0,0,130.16,146.94Z"/><path class="cls-3" d="M148.54,158.34l-11,13.63-1.95-1.59,11.16-13.51Z"/><path class="cls-3" d="M141,174.7l10.72-13.86,2,1.54q-.37,5.26-.49,10.62a60.7,60.7,0,0,1-.45,6.63h.06a68.06,68.06,0,0,1,3.84-6.1l4.15-6,1.81,1.23q-4.89,7.28-9.76,14.56l-2.11-1.44c0-3.61,0-7.2.18-10.76a44.29,44.29,0,0,1,.73-6.76l-.08,0c-1.23,1.85-2.46,3.56-4.21,5.88l-4.52,6C142.24,175.67,141.61,175.19,141,174.7Z"/><path class="cls-3" d="M160.21,188q1.86-9.15,4.2-18.09l2.11,1.36q-1.14,4.4-2.16,8.84c-.56,2.44-1.06,4.63-1.68,6.65l0,0c1.52-1.45,3.33-2.94,5.22-4.49q3.56-2.92,7-5.93l2.16,1.21q-7,6.12-14.54,11.86Z"/><path class="cls-3" d="M183.16,191.13q-3.32-1.59-6.57-3.3l-2.93,5.6q3.74,1.95,7.55,3.77l-.81,1.71q-5-2.37-9.86-5,4.16-7.71,8.32-15.42,4.27,2.31,8.69,4.41l-.82,1.71c-2.26-1.08-4.49-2.19-6.7-3.35l-2.57,4.9q3.22,1.7,6.51,3.27Z"/><path class="cls-3" d="M184.22,197.65a9.31,9.31,0,0,0,3.66,2.89c2.38,1,4.25.46,4.92-1.18s0-2.76-2-4.61c-2.44-2.16-3.54-4.31-2.5-6.55,1.15-2.48,4.11-3.33,7.34-2a8.9,8.9,0,0,1,3.38,2.32L197.74,190a8,8,0,0,0-2.9-2.1c-2.29-1-3.73-.07-4.22,1-.67,1.49,0,2.7,2.06,4.58,2.48,2.29,3.5,4.21,2.55,6.61s-4,3.89-8.25,2a10.55,10.55,0,0,1-4.13-3.07C183.31,198.63,183.76,198.14,184.22,197.65Z"/><path class="cls-3" d="M205.52,192.46q-2.64-.94-5.24-2c.23-.6.46-1.2.7-1.8q6.27,2.44,12.74,4.47c-.19.61-.38,1.22-.58,1.83-1.79-.56-3.58-1.14-5.35-1.75L202.72,208l-2.45-.86Z"/></g></g></svg>