<svg xmlns="http://www.w3.org/2000/svg" viewBox="0 0 137.5 151.55"><defs><style>.cls-1{fill:#fcfcfc;}</style></defs><title>Asset 26</title><g id="Layer_2" data-name="Layer 2"><g id="share"><path class="cls-1" d="M4.81,149.53a9.21,9.21,0,0,0,4.58-.85c2.33-1.1,3.13-2.87,2.35-4.45S9.69,142.38,7,142.66c-3.24.41-5.59-.17-6.59-2.42-1.11-2.5.22-5.3,3.4-6.83a8.86,8.86,0,0,1,4-1L8,134.35a7.67,7.67,0,0,0-3.5.78c-2.26,1.08-2.54,2.77-2,3.86.69,1.49,2.06,1.75,4.81,1.47,3.37-.35,5.46.18,6.63,2.48s.3,5.52-3.9,7.51a10.74,10.74,0,0,1-5,1.08C4.94,150.86,4.88,150.2,4.81,149.53Z"/><path class="cls-1" d="M13.12,129c1.15,2.15,2.3,4.31,3.46,6.46q4-2.15,7.9-4.42l-3.71-6.33,2-1.2,9,15c-.72.44-1.45.87-2.19,1.3l-4.14-7.1q-3.94,2.31-8,4.46l3.88,7.25-2.23,1.18Q15.1,137.86,11,130.1Z"/><path class="cls-1" d="M35.22,130c.43,1.9.86,3.81,1.26,5.72-.73.46-1.46.92-2.2,1.37q-1.77-9.19-4-18.21c.79-.51,1.57-1,2.35-1.55q7.43,5.56,15.19,10.82l-2.19,1.53q-2.41-1.68-4.81-3.39Q38.05,128.13,35.22,130Zm4.2-4.89c-1.45-1-2.89-2.1-4.32-3.17a32.84,32.84,0,0,1-2.56-2.14l0,0c.35,1,.68,2.07,1,3.16q.63,2.61,1.23,5.25Q37.08,126.65,39.42,125.06Z"/><path class="cls-1" d="M40,112.44a26.73,26.73,0,0,1,3.37-2.94c2-1.5,3.5-2.14,5-2.06a4.33,4.33,0,0,1,3.19,1.71,4.58,4.58,0,0,1,0,5.67l0,.06c1.42-.51,2.87-.07,4.36,1.08a25.43,25.43,0,0,0,4.15,2.83l-2,1.61a20.49,20.49,0,0,1-3.59-2.51c-1.94-1.56-3.28-1.66-5.08-.4l-1.83,1.37,4.52,6.1-2,1.48Zm6.62,5,2-1.47c2-1.56,2.51-3.61,1.27-5.18-1.4-1.78-3.33-1.51-5.32,0a10.13,10.13,0,0,0-1.72,1.55Z"/><path class="cls-1" d="M64.47,104.36c-1.8,1.61-3.63,3.2-5.49,4.75L63.05,114c2.12-1.78,4.21-3.6,6.26-5.44l1.27,1.41q-4,3.63-8.22,7.08L51.21,103.47q3.75-3.07,7.36-6.32l1.26,1.42c-1.84,1.65-3.72,3.28-5.61,4.87l3.56,4.24c1.84-1.54,3.65-3.12,5.44-4.71Z"/><path class="cls-1" d="M85.84,95c-.73.06-1.44.1-2.48.13a8.07,8.07,0,0,1-2.48,5.42c-2.66,2.67-5.83,2.51-7.63.61-1.66-1.73-1.68-4-1-6.23l0-.06a5.8,5.8,0,0,1-3.66-1.54A4.37,4.37,0,0,1,68.8,87a3.74,3.74,0,0,1,5.44-.27c1.34,1.27,1.64,3.08.56,6.15l0,.05c2.32.09,5,.14,6.69.12a12,12,0,0,0-2.49-4.82l1.49-1.62A12.44,12.44,0,0,1,83.45,93c1.41-.07,2.81-.12,4.41-.21C87.19,93.52,86.52,94.25,85.84,95Zm-4.26.11c-1.61,0-4.61,0-7.65-.07a4.35,4.35,0,0,0,.78,4.23A3.57,3.57,0,0,0,80,99,5.47,5.47,0,0,0,81.58,95.08ZM70,91.63a4.68,4.68,0,0,0,3.2,1.24c.6-2,.75-3.54-.31-4.57a2.11,2.11,0,0,0-3.09-.09A2.32,2.32,0,0,0,70,91.63Z"/><path class="cls-1" d="M80.06,75.16l1.5-1.76,12,10q2.63-3.12,5.15-6.35c.5.39,1,.78,1.49,1.18q-3.3,4.22-6.8,8.29Z"/><path class="cls-1" d="M101.08,63.29c-1.39,2-2.82,3.93-4.27,5.87l5,3.79c1.66-2.21,3.29-4.45,4.87-6.72l1.56,1.09q-3.12,4.46-6.42,8.75L88,65.41q2.94-3.84,5.73-7.81c.52.36,1,.72,1.55,1.09-1.42,2-2.88,4-4.37,6L95.31,68c1.44-1.92,2.86-3.86,4.24-5.82Z"/><path class="cls-1" d="M117.38,51.85a18.08,18.08,0,0,1-2.29,5.56,10.12,10.12,0,0,1-5.86,4.78,8.53,8.53,0,0,1-6.88-1.49c-4.29-3-5.31-8.19-2.12-13.26a12.1,12.1,0,0,1,3-3.4l1.29,1.43a10.17,10.17,0,0,0-2.75,3c-2.34,3.71-1.76,7.56,1.88,10s7.51,1.54,9.91-2.26A8.56,8.56,0,0,0,115,53.22l-4.46-2.73c-.67,1.09-1.34,2.17-2,3.24l-1.54-1q1.65-2.59,3.22-5.23Z"/><path class="cls-1" d="M116.73,43.53q1.92,2.22,3.82,4.45c-.43.75-.86,1.5-1.3,2.24Q113.35,43,107.15,36c.45-.82.9-1.64,1.34-2.47Q117.67,35,127,36c-.4.8-.8,1.6-1.21,2.39-2-.22-3.9-.47-5.84-.72Q118.38,40.61,116.73,43.53Zm1.41-6.29q-2.65-.36-5.31-.76c-1.2-.18-2.24-.43-3.26-.68l0,.05c.78.73,1.58,1.5,2.34,2.33,1.19,1.34,2.38,2.69,3.55,4Q116.82,39.75,118.14,37.24Z"/><path class="cls-1" d="M133.2,21.15a13.14,13.14,0,0,1-1.3,5.06c-2.26,5.05-6.92,7.36-12.05,4.79-4.91-2.47-6.51-7.54-4.23-12.64a10.51,10.51,0,0,1,2.43-3.65L119.53,16a9.21,9.21,0,0,0-2.15,3.1c-1.73,3.89-.62,7.58,3.52,9.6,3.85,1.87,7.55.63,9.48-3.7a10.34,10.34,0,0,0,1-4Z"/><path class="cls-1" d="M136.58,14.33l-6.93-2.69q-5.79,1-11.55,1.69c.34-.83.68-1.65,1-2.48,1.82-.19,3.63-.4,5.45-.62,1.5-.19,2.7-.33,4.05-.44l0-.06c-.88-.9-1.73-1.91-2.72-3q-1.8-2.1-3.63-4.16c.31-.84.6-1.68.9-2.53q3.75,4.55,7.33,9.31l7,2.62C137.2,12.73,136.89,13.53,136.58,14.33Z"/></g></g></svg>