<svg xmlns="http://www.w3.org/2000/svg" viewBox="0 0 264.5 263.5"><defs><style>.cls-1{fill:#232641;}.cls-2{fill:none;stroke:#c18b2b;stroke-miterlimit:10;}.cls-3{fill:#fcfcfc;}</style></defs><title>Asset 20</title><g id="Layer_2" data-name="Layer 2"><g id="share"><path class="cls-1" d="M.5,0,.28,263.5H.5C145.05,263.5,264,144.55,264,0Z"/><line class="cls-2" x1="264.5" y1="0.5" x2="0.5" y2="0.5"/><line class="cls-2" x1="0.5" y1="263.5" x2="0.5" y2="0.5"/></g><g id="share-2" data-name="share"><path class="cls-3" d="M79.82,205.38a9.44,9.44,0,0,0,4.58-.85c2.33-1.11,3.13-2.87,2.35-4.46s-2-1.85-4.76-1.57c-3.24.42-5.59-.17-6.59-2.42-1.11-2.5.22-5.3,3.4-6.83a8.82,8.82,0,0,1,4-1l.24,1.94a7.86,7.86,0,0,0-3.5.79c-2.26,1.07-2.54,2.76-2,3.85.69,1.49,2.06,1.76,4.81,1.48,3.37-.36,5.46.17,6.63,2.47s.3,5.53-3.9,7.51a10.74,10.74,0,0,1-5,1.08C80,206.7,79.89,206,79.82,205.38Z"/><path class="cls-3" d="M88.13,184.84q1.73,3.24,3.46,6.46,4-2.13,7.9-4.42l-3.71-6.33,2-1.2,9,15c-.72.44-1.45.87-2.19,1.3l-4.14-7.09q-3.94,2.29-8,4.46,2,3.62,3.88,7.24l-2.23,1.18-8.12-15.53C86.75,185.58,87.44,185.21,88.13,184.84Z"/><path class="cls-3" d="M110.23,185.79c.43,1.9.86,3.81,1.26,5.73l-2.2,1.37q-1.77-9.19-4-18.22c.79-.51,1.57-1,2.35-1.55q7.42,5.58,15.19,10.82l-2.19,1.53q-2.41-1.68-4.81-3.39Q113.07,184,110.23,185.79Zm4.2-4.89q-2.18-1.56-4.32-3.17a32.84,32.84,0,0,1-2.56-2.14l0,0c.35,1,.69,2.07,1,3.16q.63,2.63,1.23,5.25C111.29,183,112.87,182,114.43,180.9Z"/><path class="cls-3" d="M115,168.28a26.73,26.73,0,0,1,3.37-2.94c2-1.5,3.5-2.14,5-2.06a4.36,4.36,0,0,1,3.19,1.71,4.58,4.58,0,0,1,0,5.67l.05.07c1.42-.52,2.87-.08,4.36,1.07a24.13,24.13,0,0,0,4.15,2.83l-2,1.61a19.37,19.37,0,0,1-3.59-2.51c-1.94-1.56-3.28-1.66-5.08-.39l-1.83,1.36,4.52,6.1-2,1.48Zm6.62,5c.66-.48,1.32-1,2-1.47,2.05-1.56,2.51-3.61,1.27-5.18-1.4-1.78-3.33-1.51-5.32,0a10.13,10.13,0,0,0-1.72,1.55Q119.72,170.76,121.63,173.32Z"/><path class="cls-3" d="M139.48,160.2c-1.8,1.62-3.63,3.2-5.49,4.76l4.07,4.83q3.18-2.67,6.26-5.44l1.27,1.41q-4,3.63-8.22,7.08l-11.15-13.53q3.75-3.08,7.36-6.31l1.26,1.41c-1.84,1.65-3.72,3.28-5.61,4.87q1.77,2.13,3.56,4.24,2.76-2.31,5.44-4.71Z"/><path class="cls-3" d="M160.85,150.81c-.73.06-1.44.1-2.48.13a8.07,8.07,0,0,1-2.48,5.42c-2.66,2.67-5.83,2.51-7.63.61-1.66-1.73-1.68-4-.95-6.23l-.05-.05a5.81,5.81,0,0,1-3.66-1.55,4.36,4.36,0,0,1,.21-6.29,3.73,3.73,0,0,1,5.44-.28c1.34,1.27,1.64,3.09.56,6.15l.05.06c2.32.09,4.95.14,6.69.12a11.93,11.93,0,0,0-2.49-4.83c.5-.54,1-1.07,1.49-1.61a12.38,12.38,0,0,1,2.91,6.38c1.41-.06,2.81-.12,4.41-.21C162.2,149.36,161.53,150.09,160.85,150.81Zm-4.26.11c-1.61,0-4.61.05-7.65-.07a4.37,4.37,0,0,0,.78,4.24,3.58,3.58,0,0,0,5.25-.24A5.47,5.47,0,0,0,156.59,150.92ZM145,147.47a4.74,4.74,0,0,0,3.2,1.25c.6-2,.75-3.55-.31-4.58a2.11,2.11,0,0,0-3.09-.08A2.31,2.31,0,0,0,145,147.47Z"/><path class="cls-3" d="M155.07,131l1.5-1.77,12,10c1.75-2.08,3.47-4.2,5.15-6.34l1.49,1.17q-3.3,4.21-6.79,8.29Z"/><path class="cls-3" d="M176.09,119.13c-1.39,2-2.82,3.93-4.27,5.87l5.05,3.79c1.66-2.21,3.29-4.45,4.87-6.72l1.56,1.09q-3.12,4.45-6.42,8.75L163,121.25q2.94-3.84,5.73-7.81l1.55,1.09q-2.13,3-4.37,6l4.43,3.32c1.44-1.92,2.86-3.86,4.24-5.82Z"/><path class="cls-3" d="M192.39,107.69a18.21,18.21,0,0,1-2.29,5.57,10.14,10.14,0,0,1-5.86,4.77,8.46,8.46,0,0,1-6.88-1.49c-4.29-3-5.31-8.18-2.12-13.26a12.1,12.1,0,0,1,3-3.4l1.29,1.44a10,10,0,0,0-2.75,3c-2.34,3.72-1.76,7.57,1.88,10s7.51,1.53,9.91-2.27a8.49,8.49,0,0,0,1.35-3l-4.46-2.73c-.67,1.09-1.34,2.17-2,3.24l-1.54-1q1.65-2.59,3.22-5.23Z"/><path class="cls-3" d="M191.74,99.38q1.92,2.2,3.82,4.45l-1.3,2.24q-5.89-7.27-12.1-14.18c.45-.82.9-1.65,1.34-2.48q9.18,1.43,18.51,2.38c-.41.8-.81,1.6-1.22,2.39q-2.92-.33-5.84-.72Q193.39,96.45,191.74,99.38Zm1.41-6.3q-2.66-.36-5.31-.75c-1.2-.18-2.24-.44-3.26-.69l0,0c.78.74,1.58,1.51,2.34,2.33,1.19,1.34,2.38,2.69,3.55,4Q191.84,95.6,193.15,93.08Z"/><path class="cls-3" d="M208.21,77a13.15,13.15,0,0,1-1.3,5c-2.26,5.06-6.92,7.36-12,4.79-4.91-2.47-6.51-7.54-4.23-12.64a10.61,10.61,0,0,1,2.43-3.65l1.48,1.25a9.21,9.21,0,0,0-2.15,3.1c-1.73,3.89-.62,7.58,3.52,9.6,3.85,1.87,7.55.63,9.48-3.69a10.43,10.43,0,0,0,1-4Z"/><path class="cls-3" d="M211.59,70.17l-6.93-2.69q-5.79,1-11.55,1.69c.34-.82.68-1.65,1-2.48,1.82-.19,3.63-.39,5.45-.62,1.5-.19,2.7-.33,4.05-.44l0,0c-.88-.91-1.73-1.91-2.72-3-1.2-1.4-2.41-2.78-3.63-4.16.31-.84.6-1.68.9-2.53q3.75,4.54,7.33,9.31l7,2.63C212.21,68.58,211.9,69.37,211.59,70.17Z"/></g></g></svg>